PathFileType	4	(X/Y/Z)	C:/Users/beibeiliu/ov580/test_trc/User2\sequence.34_training_dense_right.trc
DataRate	CameraRate	NumFrames	NumMarkers	Units	OrigDataRate	OrigDataStartFrame	OrigNumFrames
120	120	22	19	mm	120	116	144
Frame#	Time	ThumbCMC			ThumbMCP			ThumbIP			ThumbTip			IndexMCP			IndexPIP			IndexTip			MiddleMCP			MiddlePIP			MiddleTip			RingMCP			RingPIP			RingTip			PinkyMCP			PinkyPIP			PinkyTip			BackHand1			BackHand2			BackHand3	
		X0	Y0	Z0	X1	Y1	Z1	X2	Y2	Z2	X3	Y3	Z3	X4	Y4	Z4	X5	Y5	Z5	X6	Y6	Z6	X7	Y7	Z7	X8	Y8	Z8	X9	Y9	Z9	X10	Y10	Z10	X11	Y11	Z11	X12	Y12	Z12	X13	Y13	Z13	X14	Y14	Z14	X15	Y15	Z15	X16	Y16	Z16	X17	Y17	Z17	X18	Y18	Z18	
115	0.958333	98.0419	56.5154	-36.9631	66.3323	64.4409	-55.3211	42.1029	63.0939	-80.7823	33.1982	45.1754	-103.554	79.8594	50.8714	-117.915	47.2545	42.8138	-110.292	58.9977	41.935	-74.365	76.817	30.1644	-124.508	44.2427	18.3421	-105.849	57.5693	23.9215	-67.9204	75.8583	5.25035	-115.983	49.0956	4.10464	-96.4489	67.7161	7.39432	-65.246	77.5319	-10.6042	-105.996	57.268	-6.20158	-80.3257	75.187	1.31219	-57.8096	131.194	8.15966	-82.9033	144.668	6.79598	-52.3471	133.685	40.5991	-63.1452	
116	0.966667	96.6306	51.2328	-39.8836	62.0001	55.8048	-55.1352	35.1938	53.6522	-80.0188	26.3662	38.3951	-99.0642	79.4791	51.1107	-117.053	45.5354	43.1404	-110.238	57.1659	36.7844	-75.3116	74.7295	31.6969	-123.497	44.7651	17.4626	-105.692	56.6911	18.2161	-68.7267	71.1733	6.98434	-115.152	48.7831	0.900121	-94.9365	66.0381	6.97448	-65.1852	77.3732	-9.46034	-105.391	56.5439	-9.70293	-82.1779	76.7127	2.00477	-56.9377	129.605	10.5111	-85.8136	147.622	7.42343	-50.1637	133.709	42.8936	-58.5209	
117	0.975	95.1958	49.0147	-38.3825	59.6057	52.7243	-51.2392	36.4367	45.0166	-76.8182	21.2801	33.4549	-99.1748	76.9458	54.4253	-117.801	46.9571	44.5971	-112.573	52.1703	37.1473	-76.988	76.1331	31.7179	-122.543	45.5667	22.269	-111.196	55.237	18.4937	-69.791	72.9301	5.19743	-114.96	49.887	1.71853	-94.9162	68.1877	9.60539	-62.2661	75.5078	-12.7626	-104.348	56.635	-10.2678	-80.9064	78.0699	0.926694	-54.5863	129.872	11.2992	-84.3421	146.079	2.80262	-50.6244	130.833	42.1316	-61.7103	
118	0.983333	95.2767	51.2049	-35.4835	59.8574	49.076	-54.0123	32.4944	45.0841	-72.5627	19.5198	32.1767	-95.3231	81.1197	54.1161	-115.469	48.2183	44.8714	-115.123	49.8839	38.4774	-78.3152	79.1591	31.8914	-120.783	45.6714	21.7424	-110.864	56.5223	16.0758	-70.6352	70.6814	4.34847	-115.173	49.5725	0.512721	-91.2519	66.75	10.4483	-62.6317	80.2826	-12.5063	-103.726	57.1896	-11.6958	-75.5399	75.1759	-0.934193	-55.1752	132.445	8.53052	-82.5902	146.39	2.70828	-51.1102	133.107	41.1536	-62.2229	
119	0.991667	93.7765	50.1475	-37.005	58.1196	49.4867	-50.9109	31.9429	44.2639	-70.033	14.7593	33.0361	-88.59	81.788	54.1998	-115.158	49.435	41.5957	-114.653	50.868	36.6825	-79.8296	76.3835	30.9226	-123.583	45.2198	21.109	-109.045	57.0615	16.0584	-72.6834	73.8426	7.9734	-114.519	49.2452	1.26679	-92.2856	65.3426	10.0422	-65.6185	80.2922	-15.1995	-103.817	56.5073	-8.73882	-77.3918	75.2271	0.137739	-54.5931	130.327	8.89716	-80.4734	145.667	6.09706	-52.8256	130.717	42.2739	-59.7655	
120	1	93.7057	52.182	-35.8647	55.5586	51.4721	-50.1302	28.1228	45.2986	-66.7945	8.92641	37.3413	-81.5015	77.5926	51.1408	-118.209	47.7642	43.6573	-113.564	51.7008	35.688	-79.7338	74.8962	33.2249	-123.382	46.0474	20.8605	-111.407	57.8663	19.0742	-71.1963	73.4652	7.21086	-115.364	48.4856	1.28669	-96.8199	65.6329	7.70972	-65.6331	79.1586	-14.6121	-103.85	55.1011	-10.6911	-81.3721	74.4275	0.301257	-54.6853	128.593	10.6651	-84.4594	147.017	6.29255	-49.7047	132.857	41.7977	-61.2875	
121	1.00833	93.4644	52.863	-36.2893	58.3045	50.0387	-42.1625	25.6478	47.9989	-62.3361	4.15912	42.7846	-73.1097	80.172	51.7329	-115.721	46.9554	44.6569	-110.094	54.651	37.4266	-75.6189	79.7563	29.3465	-122.35	45.9327	22.2808	-111.551	62.2426	19.8763	-70.6881	74.311	4.99018	-116.593	49.4038	1.47205	-95.125	67.4227	11.9477	-65.5668	77.3316	-13.0235	-104.411	54.8615	-7.76643	-82.5311	74.0132	-0.264132	-54.8807	129.817	9.26495	-83.876	145.061	3.08522	-52.2185	131.374	38.3402	-62.58	
122	1.01667	93.7143	54.4518	-35.6977	57.738	52.2563	-41.1017	27.008	51.753	-56.1952	4.87929	47.986	-69.6668	77.8876	54.7365	-116.244	47.3399	44.6294	-109.717	52.5237	40.3207	-78.3876	80.5589	32.38	-121.894	47.9971	21.0968	-111.482	61.0813	22.4739	-71.3052	73.467	6.0847	-117.036	49.056	3.60654	-96.4086	68.4251	9.49926	-65.3614	76.2634	-8.71708	-104.52	55.8055	-7.32027	-83.813	77.2458	-1.94364	-55.3847	131.333	8.04031	-85.3365	147.524	1.82651	-49.5666	133.954	42.977	-57.6339	
123	1.025	96.7156	55.5162	-32.9183	59.162	58.5101	-42.0713	31.8688	59.7589	-53.3414	4.0217	62.0795	-63.2998	79.3608	55.8127	-115.97	48.2983	46.7432	-112.297	57.805	39.4039	-74.7402	79.276	31.102	-122.597	47.1712	22.7258	-108.708	60.187	23.7111	-72.1907	72.624	7.86543	-118.243	49.5871	5.29176	-97.3797	67.0942	9.62078	-67.6309	80.2429	-13.0017	-105.863	56.3703	-9.05515	-79.1308	75.7168	-0.774209	-54.9723	132.162	7.46218	-83.9086	148.784	4.62509	-50.6231	132.896	42.2152	-57.9067	
124	1.03333	99.31	54.8855	-35.2195	68.1073	63.6587	-41.5274	36.4578	72.1624	-55.6222	14.5105	72.1758	-70.0127	78.6338	54.5299	-117.568	49.9186	44.6941	-112.051	56.2572	41.8925	-77.3819	77.0138	34.3161	-123.87	48.6704	20.7962	-112.372	62.3431	21.1987	-71.5193	75.4783	5.71021	-117.538	50.3038	1.7953	-99.1305	68.2356	11.4491	-67.2924	77.8996	-13.8867	-106.525	57.2617	-9.58758	-80.8318	75.178	0.325573	-58.5827	130.553	10.0547	-83.4857	147.946	8.03854	-49.3477	132.547	44.0068	-58.2587	
125	1.04167	105.093	57.8402	-35.0417	75.8306	74.3897	-46.0938	50.5116	84.7585	-62.1256	29.735	89.2376	-81.4047	83.3119	53.6635	-116.726	51.5804	46.0807	-115.144	58.6518	42.0127	-77.6048	81.9302	29.6675	-124.258	47.0935	23.9321	-109.383	64.9168	21.8943	-71.4501	76.1608	8.76294	-118.055	51.6299	1.47418	-97.1454	67.3465	10.9615	-69.3736	83.2266	-10.0652	-105.93	57.7903	-8.85648	-87.8088	73.2537	-0.352898	-60.8095	134.664	7.2735	-85.3614	147.831	4.831	-51.7961	133.327	42.889	-60.3632	
126	1.05	107.733	57.891	-37.4573	86.6903	77.4215	-49.7898	64.7276	94.1137	-71.5687	47.6987	96.6295	-89.6705	83.8823	55.1567	-117.56	52.6819	41.7314	-113.962	60.1695	37.6363	-79.1832	81.2365	29.1205	-126.487	49.7227	20.4835	-111.273	64.1355	19.3147	-74.1731	76.7025	4.63551	-119.405	52.9415	2.75392	-100.509	70.5416	7.71415	-67.5864	84.4315	-12.8526	-107.567	58.4808	-12.3711	-86.1591	74.1543	-0.193947	-60.344	134.779	10.6993	-84.8577	150.258	3.5216	-51.9415	136.115	43.3549	-62.4757	
127	1.05833	110.107	58.8264	-38.232	92.7329	76.3942	-56.4183	73.9566	93.989	-76.4034	59.1589	100.19	-98.626	83.71	50.4513	-118.989	51.2572	44.6756	-113.658	60.8184	40.9864	-77.8608	82.5762	32.2025	-125.586	50.3513	19.2596	-110.874	64.7199	21.3802	-73.0734	77.9914	8.50661	-118.91	52.3738	1.68237	-97.534	69.7644	6.62754	-68.8916	80.463	-13.6767	-109.835	58.6754	-9.65636	-84.3272	75.0242	-2.07854	-58.5632	133.901	7.90561	-85.9129	148.783	6.45212	-48.2782	135.449	39.3061	-59.4524	
128	1.06667	111.291	60.7589	-36.0992	96.0285	77.363	-53.8363	79.1682	93.3098	-81.0814	64.717	101.569	-105.779	82.9019	52.9054	-119.666	54.4279	42.1295	-116.877	60.528	38.949	-80.8355	84.9214	30.8255	-123.955	48.9654	22.1691	-111.327	64.6033	22.2401	-72.7749	76.6096	8.41453	-120.06	52.2049	3.37676	-99.0521	71.7506	10.3208	-68.7666	81.036	-14.8379	-109.325	58.2051	-8.94135	-89.1183	73.1531	0.154127	-63.7095	132.953	7.60857	-86.6095	150.651	4.05885	-52.4172	135.608	39.3143	-59.3207	
129	1.075	111.059	57.5522	-40.2493	97.3908	78.2036	-58.3004	80.6514	95.7729	-83.0755	65.7272	99.7793	-105.612	82.205	48.7555	-121.938	53.1509	43.7689	-116.729	60.6298	38.9938	-80.9965	81.6367	30.7427	-127.244	49.8131	18.9609	-112.153	63.3947	24.0892	-73.3183	79.3445	7.30073	-120.032	53.3389	1.73348	-104.347	71.5612	8.34335	-69.7086	86.0059	-11.3671	-108.812	58.2782	-11.8754	-86.196	75.0987	-3.92781	-61.1751	134.085	7.90818	-84.9476	148.785	5.68105	-49.3895	136.483	41.4369	-61.3685	
130	1.08333	112.071	57.5107	-38.957	94.9029	81.2411	-59.7444	77.6871	92.3901	-86.0782	62.4195	92.1349	-107.46	85.6379	50.341	-121.491	54.3909	44.7602	-119.09	58.5972	35.8233	-83.6136	83.2576	25.8967	-128.574	51.364	19.3543	-113.594	61.16	20.4941	-77.5093	80.9616	4.82526	-121.758	54.2896	2.2298	-104.669	70.6326	9.26546	-71.1077	84.7273	-10.543	-110.42	59.3746	-12.9405	-92.8595	72.1855	-1.89697	-61.8913	135.517	10.4971	-85.371	149.965	2.08329	-51.9361	135.916	39.9869	-62.9604	
131	1.09167	109.29	59.109	-41.5668	88.3824	78.3894	-53.4188	65.2704	90.6848	-82.5639	51.3519	85.2947	-103.575	86.8127	55.4396	-120.471	55.493	43.4607	-124.408	51.9049	38.4597	-88.1523	89.6788	30.0101	-127.839	52.9915	19.2938	-119.136	61.1601	16.2182	-80.2113	87.3626	7.00419	-124.146	57.2324	1.54432	-112.771	69.0924	5.54958	-76.5565	91.0804	-10.82	-114.394	61.7674	-11.9343	-96.7587	68.8518	-6.04705	-67.3942	137.044	13.4159	-83.2913	152.807	9.35011	-56.7649	136.113	43.8016	-65.4106	
132	1.1	101.392	60.2379	-31.2918	74.4451	73.7553	-46.2197	48.7197	80.0911	-74.4218	37.1517	68.7182	-95.1587	85.7282	52.4981	-117.346	56.8175	39.2773	-126.16	44.4938	31.2118	-88.7002	89.4429	38.0278	-128.02	54.5341	18.0513	-126.901	53.8555	9.8662	-89.7402	90.4556	11.8085	-127.228	62.0607	1.88935	-122.979	63.1465	3.02587	-84.1426	100.083	-7.49598	-115.702	65.7422	-13.5007	-105.34	68.5843	-9.70655	-76.8473	140.257	18.4028	-82.8303	154.703	12.7933	-52.0558	134.422	49.6213	-57.1679	
133	1.10833	91.6382	56.2213	-23.0877	62.2833	61.4722	-40.8397	37.0728	63.0219	-60.1058	22.8348	55.159	-83.1124	75.6196	60.0751	-111.569	50.5368	42.2691	-123.267	40.0524	18.1142	-95.9547	87.6179	40.4861	-125.668	57.0817	25.9081	-133.028	48.4586	2.86895	-99.2591	95.8739	19.4846	-125.838	68.6974	2.79126	-130.494	60.3138	-8.27014	-96.6979	104.768	-1.25081	-118.552	72.2638	-15.567	-115.761	65.6538	-16.0261	-88.9446	135.16	26.8515	-77.8579	150.206	27.369	-49.7071	123.773	54.8392	-50.6881	
134	1.11667	85.5215	46.8937	-16.7491	54.0746	48.3049	-27.5903	21.2227	51.2661	-48.1455	9.26108	43.6547	-72.9238	69.934	60.6177	-101.713	45.1832	47.4973	-120.12	32.1614	13.6357	-106.729	82.5605	52.9915	-117.007	57.5453	31.3269	-135.884	44.6409	-2.17612	-111.912	96.8161	34.1365	-121.054	75.028	16.8985	-136.147	56.1128	-6.46657	-109.143	112.541	12.1002	-112.476	82.1442	-4.43286	-125.01	66.2215	-18.0633	-105.944	132.579	37.9495	-67.7313	148.154	32.9803	-38.5122	118.657	55.8805	-41.4222	
135	1.125	77.2215	40.4701	-11.2708	45.163	37.1301	-19.399	15.2322	34.6775	-40.5898	4.66967	27.2752	-63.4953	59.0362	60.3525	-90.5826	43.1865	46.3722	-117.212	32.0393	13.6535	-121.832	79.4974	55.5656	-112.526	59.2975	39.3075	-137.213	44.4391	5.0988	-137.139	97.044	41.9966	-118.297	79.2569	26.0977	-139.369	62.5655	-0.967655	-135.746	116.63	20.5295	-109.891	96.4993	3.64818	-134.308	76.3336	-16.6465	-130.543	127.152	42.1885	-65.2144	144.743	41.9576	-32.7338	106.918	55.9711	-36.8566	
136	1.13333	76.013	31.2405	-6.2129	47.3332	25.4267	-20.3321	19.4893	19.9149	-39.1902	3.78695	14.188	-60.2237	59.1849	54.3543	-88.2216	36.9366	46.3005	-111.939	29.6675	15.5473	-130.576	77.8108	55.5973	-106.832	59.5481	46.9515	-133.528	48.0676	16.0886	-152.139	102.766	44.5719	-112.045	89.4092	35.5631	-138.542	70.4515	10.3543	-154.849	122.234	27.9014	-107.092	110.665	14.604	-136.031	91.9327	-1.92067	-148.519	126.029	46.8052	-60.7046	144.072	42.8893	-29.0855	103.711	55.3202	-32.0156	
